<?xml version="1.0" encoding="UTF-8" ?>
<!DOCTYPE svg PUBLIC "-//W3C//DTD SVG 1.1//EN" "http://www.w3.org/Graphics/SVG/1.1/DTD/svg11.dtd">
<svg width="400pt" height="400pt" viewBox="0 0 400 400" version="1.1" xmlns="http://www.w3.org/2000/svg">
<g id="#ffffffff">
</g>
<g id="#1b1b1bff">
<path fill="#1b1b1b" opacity="1.00" d=" M 121.32 94.99 C 146.52 69.75 171.75 44.52 196.99 19.32 C 197.01 27.79 196.99 36.26 197.00 44.73 C 180.23 61.48 163.48 78.23 146.73 95.00 C 138.26 94.99 129.79 95.01 121.32 94.99 Z" />
<path fill="#1b1b1b" opacity="1.00" d=" M 200.01 20.32 C 224.59 44.86 249.14 69.41 273.68 93.99 C 265.39 94.01 257.10 93.99 248.81 94.01 C 233.09 77.05 217.35 60.06 200.00 44.73 C 200.00 36.59 199.99 28.46 200.01 20.32 Z" />
<path fill="#1b1b1b" opacity="1.00" d=" M 20.32 195.99 C 45.16 170.72 70.03 145.48 94.99 120.33 C 95.01 129.46 94.99 138.60 95.00 147.73 C 78.90 163.81 62.81 179.90 46.73 196.00 C 37.93 195.99 29.12 196.01 20.32 195.99 Z" />
<path fill="#1b1b1b" opacity="1.00" d=" M 305.01 121.32 C 329.63 146.15 354.18 171.04 378.68 195.99 C 370.21 196.01 361.73 195.99 353.26 196.00 C 337.34 179.76 321.16 163.78 305.00 147.77 C 305.01 138.95 304.99 130.14 305.01 121.32 Z" />
<path fill="#1b1b1b" opacity="1.00" d=" M 21.32 199.01 C 29.46 198.99 37.59 199.00 45.73 199.00 C 62.50 215.41 79.28 231.82 96.00 248.27 C 95.99 256.41 96.01 264.55 95.99 272.69 C 71.06 248.18 46.15 223.64 21.32 199.01 Z" />
<path fill="#1b1b1b" opacity="1.00" d=" M 353.27 199.00 C 361.41 199.00 369.55 198.99 377.69 199.01 C 353.52 223.62 329.30 248.18 305.01 272.68 C 304.99 264.19 305.01 255.70 305.00 247.21 C 320.92 230.97 337.19 215.08 353.27 199.00 Z" />
<path fill="#1b1b1b" opacity="1.00" d=" M 122.32 304.01 C 131.12 303.99 139.92 304.00 148.73 304.00 C 164.81 320.08 181.07 335.99 197.00 352.22 C 196.99 361.37 197.01 370.53 196.99 379.68 C 172.04 354.52 147.15 329.29 122.32 304.01 Z" />
<path fill="#1b1b1b" opacity="1.00" d=" M 248.27 304.00 C 257.08 304.00 265.88 303.99 274.69 304.01 C 249.85 329.28 224.96 354.52 200.01 379.68 C 199.99 370.54 200.00 361.41 200.00 352.27 C 216.10 336.19 232.20 320.11 248.27 304.00 Z" />
</g>
<g id="#00d900ff">
<path fill="#00d900" opacity="1.00" d=" M 116.31 110.01 C 165.12 110.00 213.92 109.99 262.73 110.01 C 257.85 116.10 252.87 122.13 247.71 128.00 C 210.22 128.00 172.74 128.00 135.25 128.00 C 128.79 122.15 122.51 116.13 116.31 110.01 Z" />
<path fill="#00d900" opacity="1.00" d=" M 114.01 113.27 C 120.20 118.72 126.06 124.54 132.00 130.26 C 132.09 144.60 131.76 158.94 131.50 173.28 C 131.20 196.89 131.09 220.50 131.00 244.11 C 125.19 249.16 119.93 254.82 114.00 259.74 C 114.00 210.92 113.99 162.09 114.01 113.27 Z" />
</g>
<g id="#006ca5ff">
<path fill="#006ca5" opacity="1.00" d=" M 214.28 195.99 C 238.68 170.92 263.35 146.12 287.99 121.29 C 288.01 129.78 287.99 138.26 288.00 146.75 C 271.43 162.99 255.14 179.51 238.83 196.00 C 230.64 195.99 222.46 196.01 214.28 195.99 Z" />
<path fill="#006ca5" opacity="1.00" d=" M 214.28 199.01 C 222.43 198.99 230.59 199.00 238.74 199.00 C 255.31 214.93 271.63 231.11 288.00 247.25 C 288.00 256.07 288.01 264.90 287.99 273.72 C 263.36 248.88 238.67 224.09 214.28 199.01 Z" />
</g>
<g id="#ff001cff">
<path fill="#ff001c" opacity="1.00" d=" M 122.32 288.99 C 147.19 264.08 172.08 239.19 196.99 214.32 C 197.01 222.12 196.99 229.93 197.00 237.73 C 179.94 254.82 163.07 272.11 145.81 289.00 C 137.98 288.99 130.15 289.01 122.32 288.99 Z" />
<path fill="#ff001c" opacity="1.00" d=" M 200.01 214.31 C 224.95 238.82 249.87 263.34 274.67 287.99 C 266.54 288.01 258.40 287.99 250.27 288.00 C 233.49 271.60 216.71 255.20 200.00 238.73 C 200.00 230.59 199.99 222.45 200.01 214.31 Z" />
</g>
</svg>
